<svg width="36" height="36" viewBox="0 0 36 36" fill="none" xmlns="http://www.w3.org/2000/svg">
<circle r="17" transform="matrix(-1 0 0 1 18 18)" stroke="#C5C5C5" stroke-width="2"/>
<path d="M13 18L12.1161 18.8839C11.628 18.3957 11.628 17.6043 12.1161 17.1161L13 18ZM19.1161 10.1161C19.6043 9.62796 20.3957 9.62796 20.8839 10.1161C21.372 10.6043 21.372 11.3957 20.8839 11.8839L19.1161 10.1161ZM20.8839 24.1161C21.372 24.6043 21.372 25.3957 20.8839 25.8839C20.3957 26.372 19.6043 26.372 19.1161 25.8839L20.8839 24.1161ZM12.1161 17.1161L19.1161 10.1161L20.8839 11.8839L13.8839 18.8839L12.1161 17.1161ZM13.8839 17.1161L20.8839 24.1161L19.1161 25.8839L12.1161 18.8839L13.8839 17.1161Z" fill="#C5C5C5"/>
</svg>
