<svg width="36" height="36" viewBox="0 0 36 36" fill="none" xmlns="http://www.w3.org/2000/svg">
<circle cx="18" cy="18" r="17" stroke="#FA6D26" stroke-width="2"/>
<path d="M23 18L23.8839 18.8839C24.372 18.3957 24.372 17.6043 23.8839 17.1161L23 18ZM16.8839 10.1161C16.3957 9.62796 15.6043 9.62796 15.1161 10.1161C14.628 10.6043 14.628 11.3957 15.1161 11.8839L16.8839 10.1161ZM15.1161 24.1161C14.628 24.6043 14.628 25.3957 15.1161 25.8839C15.6043 26.372 16.3957 26.372 16.8839 25.8839L15.1161 24.1161ZM23.8839 17.1161L16.8839 10.1161L15.1161 11.8839L22.1161 18.8839L23.8839 17.1161ZM22.1161 17.1161L15.1161 24.1161L16.8839 25.8839L23.8839 18.8839L22.1161 17.1161Z" fill="#FA6D26"/>
</svg>
